<svg id="Layer_1" data-name="Layer 1" xmlns="http://www.w3.org/2000/svg" xmlns:xlink="http://www.w3.org/1999/xlink" viewBox="0 0 939.86 768"><defs><style>.cls-1{fill:url(#radial-gradient);}.cls-2{fill:url(#radial-gradient-2);}.cls-3{fill:url(#radial-gradient-3);}.cls-4{fill:#fff;}</style><radialGradient id="radial-gradient" cx="795.5" cy="81.97" r="566.76" gradientUnits="userSpaceOnUse"><stop offset="0" stop-color="#f7ae4c"/><stop offset="0.45" stop-color="#ea5040"/><stop offset="0.56" stop-color="#dd4a55"/><stop offset="0.69" stop-color="#d24666"/><stop offset="0.83" stop-color="#cc4371"/><stop offset="1" stop-color="#ca4274"/></radialGradient><radialGradient id="radial-gradient-2" cx="551.91" cy="655.58" r="620.86" gradientTransform="translate(0 -20.57) scale(1 1.03)" gradientUnits="userSpaceOnUse"><stop offset="0" stop-color="#f7ae4c"/><stop offset="0.07" stop-color="#eb9b53"/><stop offset="0.26" stop-color="#cd6b65"/><stop offset="0.4" stop-color="#ba4d70"/><stop offset="0.48" stop-color="#b34274"/><stop offset="0.58" stop-color="#a64378"/><stop offset="0.75" stop-color="#844784"/><stop offset="0.98" stop-color="#4d4e96"/><stop offset="1" stop-color="#494e97"/></radialGradient><radialGradient id="radial-gradient-3" cx="603.71" cy="463.46" r="496.9" gradientTransform="translate(193.66 -254.42) rotate(17.17) scale(1 1.22)" gradientUnits="userSpaceOnUse"><stop offset="0.04" stop-color="#b8293e"/><stop offset="0.07" stop-color="#b52940"/><stop offset="0.46" stop-color="#94265b"/><stop offset="0.78" stop-color="#7f246b"/><stop offset="1" stop-color="#782371"/></radialGradient></defs><title>senelec_trace-Gradient</title><path class="cls-1" d="M829.78,108.22C760.3,26.39,646.29-25.67,485.45,68.08c-54.74,31.91-122.25,87.8-171,149.23C520.31,227,656.75,264,683.09,316.67c30.53,61.06-1.21,147.58-61.14,227.14,93,13,180.53,12.59,230.22-17.15C976.36,452.35,925.69,221.18,829.78,108.22Z"/><path class="cls-2" d="M314.49,217.31q-53.21-2.52-112.37-2.55c-88,0-216.94,61.77-178.34,224.67,44.66,188.48,200.46,391.42,420,264,65.79-38.18,130.8-96.74,178.18-159.65-90.49-12.63-186.1-37.92-256.93-61.15C205.42,433.29,234.75,317.88,314.49,217.31Z"/><path class="cls-3" d="M683.09,316.67C656.75,264,520.31,227,314.49,217.31c-79.74,100.57-109.07,216,50.53,265.35,70.83,23.23,166.44,48.52,256.93,61.15C681.88,464.25,713.62,377.73,683.09,316.67Z"/><path class="cls-4" d="M266.14,391.21h-40c-2.17,0-2.17,0-2.18,2.16a39.75,39.75,0,0,0,.66,9.49c1.31,5.39,4.36,8.3,9.79,9.17a50.24,50.24,0,0,0,7.94.66q32.13,0,64.27,0c3.08,0,4,.89,4,4q0,7.74,0,15.48c0,2.83-1.06,3.87-3.86,3.87-23.62,0-47.24,0-70.85,0a55.45,55.45,0,0,1-14.82-2c-9.94-2.78-15.78-9.44-18.24-19.3A65.45,65.45,0,0,1,201,399.38q-.15-16.26,0-32.53a66.21,66.21,0,0,1,1.87-15.47c2.76-11.12,9.92-17.61,21-20a73.6,73.6,0,0,1,15.52-1.46q22.92-.06,45.83,0a62.16,62.16,0,0,1,10.88.89c8.76,1.59,13.84,6.9,15.79,15.43a54.28,54.28,0,0,1,1.25,9.91c.33,7.55.23,15.11.2,22.66a30.08,30.08,0,0,1-.52,6.06,7.24,7.24,0,0,1-7.39,6.13C291.8,391.43,278.14,391,266.14,391.21Zm-9.4-17.59q15.48,0,30.95,0c2.23,0,3-.75,3.05-3,0-3.29.1-6.57,0-9.85-.23-6.1-2.14-8.28-7.71-9.09a12.88,12.88,0,0,0-1.87-.08c-8.23,0-16.46-.06-24.69,0-6.56.05-13.12-.26-19.67.27-7.83.63-11.3,3.84-12.52,11.59a40.52,40.52,0,0,0-.26,5.92c0,4.23,0,4.23,4.14,4.23Z"/><path class="cls-4" d="M705.62,391.19H667.31c-2.26,0-2.3,0-2.29,2.25a47.64,47.64,0,0,0,.37,7.64c1.29,7.47,4.85,10.74,12.48,11.31,8.9.66,17.82.21,26.73.26,14.54.09,29.09,0,43.63,0,2.33,0,3.42.9,3.45,3.25.07,5.58.07,11.16,0,16.73,0,2.54-1.09,3.4-3.64,3.4-23.67,0-47.34,0-71-.06a50.46,50.46,0,0,1-17.2-2.78c-8.63-3.15-13.54-9.57-15.79-18.22a67.73,67.73,0,0,1-1.94-17c0-10,0-20,0-30a67,67,0,0,1,2.08-17.32c3-10.79,10.14-17,21-19.29a72.47,72.47,0,0,1,14.9-1.4q23.31-.1,46.61,0A50.31,50.31,0,0,1,739,331.24c6.54,1.66,10.91,5.55,13.07,12a44.6,44.6,0,0,1,2.17,13.67c.11,8.29,0,16.58,0,24.87a15.23,15.23,0,0,1-.7,4.3c-.87,2.95-3.08,4.38-5.92,4.9a25.4,25.4,0,0,1-4.36.25q-18.86,0-37.7,0Zm-7.86-17.55v0h30.8c2.36,0,3.06-.59,3.1-2.9.06-3.59.07-7.19-.08-10.77-.22-5.39-2.32-7.58-7.65-8.27a12.17,12.17,0,0,0-1.71-.07c-9,0-18-.06-27.05,0-5.83.05-11.66-.27-17.49.26-7.75.71-11,3.75-12.3,11.42a51.92,51.92,0,0,0-.36,8.26c0,2.07,0,2.08,2.1,2.09Z"/><path class="cls-4" d="M533.69,391.12H494.75c-.65,0-1.41-.15-1.39.95.05,3.23-.22,6.47.41,9.67,1.37,7,5.08,10.11,12.45,10.65,8.59.63,17.19.23,25.78.27,14.7.08,29.4,0,44.11,0,3,0,3.91.88,3.92,3.89q0,7.83,0,15.64c0,2.77-1.06,3.83-3.75,3.83-23.67,0-47.34,0-71-.06a55.21,55.21,0,0,1-14.82-2c-10-2.83-15.8-9.57-18.25-19.47a65.73,65.73,0,0,1-1.8-15.16c-.11-10.74-.14-21.48,0-32.22a61.27,61.27,0,0,1,2.45-17.73c3.17-10.15,10.28-15.81,20.46-18a72.05,72.05,0,0,1,15.21-1.43q23.07-.09,46.14,0a59.15,59.15,0,0,1,11.48,1c8.53,1.7,13.25,7.06,15.14,15.31a69.84,69.84,0,0,1,1.44,14.26c.12,6.26,0,12.52,0,18.77a29.17,29.17,0,0,1-.54,5.59,7.31,7.31,0,0,1-7.09,6.11c-4.28.28-8.55.16-12.82.17-9.54,0-19.08,0-28.62,0Zm-7.58-17.49h30.95c2.21,0,3-.81,3-3,0-3.23.07-6.46,0-9.69-.15-5.9-2.15-8.36-7.42-9.22a14.06,14.06,0,0,0-2.34-.1c-8.86,0-17.72-.06-26.58,0-5.93.05-11.87-.3-17.8.27-7.7.75-11.05,3.86-12.31,11.47-.45,2.75-.11,5.51-.31,8.26-.12,1.55.36,2.07,2,2.06C505.58,373.6,515.84,373.64,526.11,373.63Z"/><path class="cls-4" d="M121.78,436.06H80.64c-3.37,0-4.18-.79-4.18-4.11q0-7.35,0-14.7c0-3,.9-3.91,3.93-3.92h74.29a15.09,15.09,0,0,0,3.42-.27c3.19-.72,4.82-2.33,5.27-5.59a36.11,36.11,0,0,0,.1-10.12c-.53-3.61-2.53-5.59-6.15-6a23,23,0,0,0-2.5-.11c-17.46,0-34.93,0-52.39,0a45.57,45.57,0,0,1-9.94-.94c-9.08-2.06-13.92-8.16-15.28-16.94a78.25,78.25,0,0,1,.21-26.44c1.72-9.27,8.1-15.13,17.48-16.46a54.05,54.05,0,0,1,7.63-.53q37.46,0,74.92,0a16.46,16.46,0,0,1,1.72,0c1.92.17,2.65.84,3,2.76a9.81,9.81,0,0,1,.17,1.71c0,4.64,0,9.28,0,13.92,0,3.45-.85,4.24-4.26,4.24H109.41a34.08,34.08,0,0,0-4.52.29,6.08,6.08,0,0,0-5.71,5.32,22.33,22.33,0,0,0-.06,8.23c.67,3.67,2.91,5.58,6.62,5.63,7.19.09,14.38.08,21.58.09,11.42,0,22.84,0,34.25,0a35.46,35.46,0,0,1,10,1.39c8,2.37,11.89,8.3,13.61,16a41.4,41.4,0,0,1,.86,9.16c0,5.88.3,11.78-.53,17.64a25.14,25.14,0,0,1-3.72,10.84c-3.68,5.41-9.1,7.7-15.33,8.57a49.86,49.86,0,0,1-7,.32Z"/><path class="cls-4" d="M331.14,398.55c0-10.43-.08-20.85,0-31.28a63.57,63.57,0,0,1,2.32-17.44c3.12-10.46,10.32-16.27,20.78-18.49a77.08,77.08,0,0,1,15.52-1.41q22.44-.09,44.89,0c7,0,13.95.54,20.59,3.08,8.38,3.19,13.26,9.38,15.54,17.88a74.48,74.48,0,0,1,2.05,19.21q.11,29.86,0,59.75c0,5.43-.88,6.41-6.19,6.24-4.22-.14-8.45,0-12.67,0-2.55,0-3.74-1.08-4-3.59a17.2,17.2,0,0,1,0-2q0-28.32,0-56.62a58.23,58.23,0,0,0-.68-8.56c-.9-6-4.27-9.26-10.36-10.21a29.57,29.57,0,0,0-4.51-.33q-22.05,0-44.11,0a27,27,0,0,0-6.34.79,11,11,0,0,0-8.56,8.39,38.36,38.36,0,0,0-1.21,10.05c-.06,19.08,0,38.17,0,57.25,0,3.83-1,4.87-4.79,4.87H335.92c-3.53,0-4.76-1.23-4.76-4.82,0-8.39,0-16.79,0-25.18Z"/><path class="cls-4" d="M835.91,436.05c-10.64,0-21.27.06-31.91,0a51.53,51.53,0,0,1-17.06-2.65c-8.94-3.17-14-9.78-16.25-18.75a68.09,68.09,0,0,1-1.87-16.26q-.15-15,0-30c.08-7.25.62-14.48,3.34-21.33,3.11-7.84,9-12.62,16.91-15a60.91,60.91,0,0,1,17.46-2.12c21-.06,41.91,0,62.87,0,.67,0,1.35.07,2,.13a2.33,2.33,0,0,1,2.32,2.48q.09,9.15,0,18.29a2.58,2.58,0,0,1-2.59,2.63,16.4,16.4,0,0,1-1.72,0h-61.3a30.63,30.63,0,0,0-5.89.58c-5,1-7.89,3.93-9.16,8.72a42.39,42.39,0,0,0-1.21,10.68c-.06,7.92-.31,15.85.25,23.76a32,32,0,0,0,1.1,6.61,10.91,10.91,0,0,0,9.12,8.18,38.07,38.07,0,0,0,7,.7h60.84c2.81,0,3.64.83,3.64,3.61,0,5.37,0,10.74,0,16.11,0,2.76-.9,3.65-3.65,3.66H835.91Z"/><path class="cls-4" d="M601.13,363.68q0-33.63,0-67.26a8.94,8.94,0,0,1,.33-2.78,2.93,2.93,0,0,1,2.94-2.33c5.48,0,11,0,16.43,0a2.94,2.94,0,0,1,2.94,2.33,9.43,9.43,0,0,1,.37,3.09V430c0,.41,0,.83,0,1.25-.1,3.68-1.26,4.82-4.93,4.82h-13.6c-3.07,0-4.37-1.26-4.43-4.34,0-2.4,0-4.8,0-7.19q0-30.43,0-60.85Z"/></svg>