<svg xmlns="http://www.w3.org/2000/svg" viewBox="0 0 200 200" fill="none">
  <defs>
    <linearGradient id="slblob" x1="46" y1="150" x2="156" y2="58" gradientUnits="userSpaceOnUse">
      <stop offset="0%" stop-color="#6E2090"/>
      <stop offset="26%" stop-color="#A11E9E"/>
      <stop offset="50%" stop-color="#E62A82"/>
      <stop offset="63%" stop-color="#F15A2B"/>
      <stop offset="82%" stop-color="#F47920"/>
      <stop offset="100%" stop-color="#ED1C24"/>
    </linearGradient>
    <radialGradient id="slhi" cx="68%" cy="30%" r="55%">
      <stop offset="0%" stop-color="#FFD27A" stop-opacity="0.55"/>
      <stop offset="100%" stop-color="#FFD27A" stop-opacity="0"/>
    </radialGradient>
  </defs>
  <circle cx="100" cy="100" r="95" fill="#FFFFFF"/>
  <circle cx="100" cy="100" r="91" fill="none" stroke="#1F6FB2" stroke-width="6"/>
  <g transform="rotate(-15 100 100)">
    <path d="M62 70 C 96 50, 150 52, 166 82 C 178 104, 160 128, 126 134 C 96 139, 70 138, 50 124 C 30 110, 34 86, 62 70 Z" fill="url(#slblob)"/>
    <path d="M52 118 C 84 138, 138 132, 162 104 C 138 124, 92 126, 64 110 C 56 106, 52 112, 52 118 Z" fill="#3A0E5E" opacity="0.22"/>
    <path d="M62 70 C 96 50, 150 52, 166 82 C 140 66, 96 66, 70 84 C 62 90, 58 78, 62 70 Z" fill="url(#slhi)"/>
  </g>
  <text x="100" y="108" text-anchor="middle" fill="#FFFFFF" font-family="'Helvetica Neue','Arial Rounded MT Bold',Arial,sans-serif" font-size="27" font-weight="800" letter-spacing="0.2">senelec</text>
</svg>
